<?xml version="1.0" encoding="UTF-8"?> <svg xmlns="http://www.w3.org/2000/svg" id="Слой_1" data-name="Слой 1" viewBox="0 0 205.79 160.34"><defs><style>.cls-1{fill:red;}.cls-2{fill:#ff4027;}.cls-3{fill:#212782;}</style></defs><polyline class="cls-1" points="121.76 2.64 102.9 21.5 109.26 27.86 109.26 40.59 128.12 21.73 121.76 15.36 121.76 2.64"></polyline><polyline class="cls-1" points="121.76 53.08 102.9 71.94 109.26 78.31 109.26 91.03 128.12 72.17 121.76 65.81 121.76 53.08"></polyline><polyline class="cls-1" points="71.31 53.08 46.09 78.31 58.81 91.03 77.67 72.17 71.31 65.81 71.31 53.08"></polyline><polyline class="cls-1" points="71.31 2.64 46.09 27.86 58.81 40.59 77.67 21.73 71.31 15.36 71.31 2.64"></polyline><polyline class="cls-2" points="84.04 53.08 84.04 65.81 77.67 72.17 96.53 91.03 96.53 78.31 102.9 71.94 84.04 53.08"></polyline><polyline class="cls-1" points="102.9 71.94 96.53 78.31 109.26 78.31 102.9 71.94"></polyline><polygon class="cls-1" points="84.04 65.81 77.67 72.17 71.31 65.81 84.04 65.81"></polygon><polyline class="cls-2" points="84.04 2.64 84.04 15.36 77.67 21.73 96.53 40.59 96.53 27.86 102.9 21.5 84.04 2.64"></polyline><polyline class="cls-1" points="102.9 21.5 96.53 27.86 109.26 27.86 102.9 21.5"></polyline><polygon class="cls-1" points="84.04 15.36 77.67 21.73 71.31 15.36 84.04 15.36"></polygon><polyline class="cls-2" points="134.48 53.08 134.48 65.81 128.12 72.17 146.98 91.03 159.71 78.31 134.48 53.08"></polyline><polygon class="cls-1" points="134.48 65.81 128.12 72.17 121.76 65.81 134.48 65.81"></polygon><polyline class="cls-2" points="134.48 2.64 134.48 15.36 128.12 21.73 146.98 40.59 159.71 27.86 134.48 2.64"></polyline><polygon class="cls-1" points="134.48 15.36 128.12 21.73 121.76 15.36 134.48 15.36"></polygon><circle class="cls-3" cx="52.45" cy="34.22" r="9"></circle><circle class="cls-3" cx="77.67" cy="59.45" r="9"></circle><circle class="cls-3" cx="128.12" cy="59.45" r="9"></circle><circle class="cls-3" cx="102.9" cy="34.22" r="9"></circle><circle class="cls-3" cx="153.34" cy="34.22" r="9"></circle><circle class="cls-3" cx="153.34" cy="84.67" r="9"></circle><circle class="cls-3" cx="102.9" cy="84.67" r="9"></circle><circle class="cls-3" cx="52.45" cy="84.67" r="9"></circle><circle class="cls-3" cx="77.67" cy="9" r="9"></circle><circle class="cls-3" cx="128.12" cy="9" r="9"></circle><path class="cls-3" d="M117.74,140.45h-5a.87.87,0,0,0-.79.49l-6,12-6-12a.89.89,0,0,0-.79-.49h-5a.88.88,0,0,0-.8,1.27L102.54,160l-2.94,4.34a.89.89,0,0,0,.73,1.38h3.59a4.4,4.4,0,0,0,4-2.45l10.66-21.5A.88.88,0,0,0,117.74,140.45Z" transform="translate(-4.1 -5.33)"></path><path class="cls-3" d="M32.48,140.45H30a4.39,4.39,0,0,0-3.79,2.16L18.84,155l-7.57-12.43a4.4,4.4,0,0,0-3.77-2.12H5a.88.88,0,0,0-.89.88v23.46a.88.88,0,0,0,.89.88H9.78a.87.87,0,0,0,.88-.88v-12.2l6.23,10.17a.88.88,0,0,0,.75.42h2.18a.88.88,0,0,0,.76-.43L26.8,152.3l0,12.49a.87.87,0,0,0,.88.88h4.83a.88.88,0,0,0,.88-.88l-.06-23.46A.89.89,0,0,0,32.48,140.45Z" transform="translate(-4.1 -5.33)"></path><path class="cls-3" d="M62.61,140.45H59.08a4.42,4.42,0,0,0-3.61,1.87l-9.1,12.94V141.33a.87.87,0,0,0-.88-.88H40.23a.87.87,0,0,0-.88.88v23.46a.87.87,0,0,0,.88.88h3.56a4.39,4.39,0,0,0,3.61-1.88l9.06-12.89v13.89a.88.88,0,0,0,.89.88h5.26a.87.87,0,0,0,.88-.88V141.33A.87.87,0,0,0,62.61,140.45Z" transform="translate(-4.1 -5.33)"></path><path class="cls-3" d="M86.91,141.58A14.31,14.31,0,0,0,81,140.45H73.85a4.41,4.41,0,0,0-4.41,4.41v19.93a.87.87,0,0,0,.88.88h5.37a.87.87,0,0,0,.88-.88v-5.71H81a14.31,14.31,0,0,0,5.94-1.14,8.9,8.9,0,0,0,0-16.36ZM83.85,152.5a5,5,0,0,1-3.31.95h-4v-7.38h4a4.9,4.9,0,0,1,3.31,1A3.42,3.42,0,0,1,85,149.78,3.37,3.37,0,0,1,83.85,152.5Z" transform="translate(-4.1 -5.33)"></path><path class="cls-3" d="M150.2,140.45h-2.48a4.39,4.39,0,0,0-3.79,2.16L136.56,155,129,142.57a4.4,4.4,0,0,0-3.77-2.12h-2.51a.88.88,0,0,0-.89.88v23.46a.88.88,0,0,0,.89.88h4.79a.87.87,0,0,0,.88-.88v-12.2l6.23,10.17a.88.88,0,0,0,.75.42h2.18a.88.88,0,0,0,.76-.43l6.22-10.45,0,12.49a.87.87,0,0,0,.88.88h4.83a.88.88,0,0,0,.88-.88l-.06-23.46A.89.89,0,0,0,150.2,140.45Z" transform="translate(-4.1 -5.33)"></path><path class="cls-3" d="M180.33,140.45H176.8a4.42,4.42,0,0,0-3.61,1.87l-9.09,12.94V141.33a.88.88,0,0,0-.89-.88H158a.87.87,0,0,0-.88.88v23.46a.87.87,0,0,0,.88.88h3.56a4.39,4.39,0,0,0,3.61-1.88l9.06-12.89v13.89a.88.88,0,0,0,.89.88h5.26a.87.87,0,0,0,.88-.88V141.33A.87.87,0,0,0,180.33,140.45Z" transform="translate(-4.1 -5.33)"></path><path class="cls-3" d="M208.53,144.83a8.87,8.87,0,0,0-3.89-3.25,14.39,14.39,0,0,0-5.95-1.13h-7.12a4.41,4.41,0,0,0-4.41,4.41v19.93a.87.87,0,0,0,.88.88h5.37a.87.87,0,0,0,.88-.88v-5.71h4.4a14.39,14.39,0,0,0,5.95-1.14,8.94,8.94,0,0,0,3.89-3.22,9.61,9.61,0,0,0,0-9.89Zm-7,7.67a5,5,0,0,1-3.31.95h-4v-7.38h4a4.9,4.9,0,0,1,3.31,1,3.42,3.42,0,0,1,1.12,2.74A3.37,3.37,0,0,1,201.57,152.5Z" transform="translate(-4.1 -5.33)"></path></svg> 